<svg width="18" height="18" viewBox="0 0 18 18" fill="none" xmlns="http://www.w3.org/2000/svg">
<path d="M17.7612 16.5856L13.7476 12.8162C14.8242 11.4632 15.4724 9.7439 15.4724 7.87136C15.4724 3.53135 12.0017 0 7.73617 0C3.47067 0 0 3.53131 0 7.87133C0 12.2113 3.47071 15.7427 7.7362 15.7427C9.57659 15.7427 11.2663 15.0832 12.5961 13.9878L16.6097 17.7572C16.7685 17.9188 16.977 18 17.1855 18C17.394 18 17.6024 17.9188 17.7612 17.7572C18.0796 17.4333 18.0796 16.9096 17.7612 16.5856ZM7.7362 14.0856C4.3681 14.0856 1.62868 11.2983 1.62868 7.87133C1.62868 4.44437 4.3681 1.6571 7.7362 1.6571C11.1043 1.6571 13.8437 4.44437 13.8437 7.87133C13.8437 11.2983 11.1043 14.0856 7.7362 14.0856Z" fill="#535D6E"/>
</svg>
