<svg width="20" height="4" viewBox="0 0 20 4" fill="none" xmlns="http://www.w3.org/2000/svg">
<path d="M0.000121983 2C0.000122031 0.89543 0.895552 -8.35085e-07 2.00012 -7.86803e-07C3.10469 -7.38521e-07 4.00012 0.89543 4.00012 2C4.00012 3.10457 3.10469 4 2.00012 4C0.895552 4 0.000121935 3.10457 0.000121983 2ZM8.00017 2C8.00017 0.89543 8.8956 -4.85394e-07 10.0002 -4.37112e-07C11.1047 -3.8883e-07 12.0002 0.89543 12.0002 2C12.0002 3.10457 11.1047 4 10.0002 4C9.46973 4 8.96103 3.78929 8.58595 3.41421C8.21088 3.03914 8.00017 2.53043 8.00017 2ZM16.0001 2C16.0001 0.89543 16.8956 -1.35705e-07 18.0001 -8.74228e-08C19.1047 -3.91405e-08 20.0001 0.89543 20.0001 2C20.0001 3.10457 19.1047 4 18.0001 4C17.4697 4 16.961 3.78929 16.5859 3.41421C16.2108 3.03914 16.0001 2.53043 16.0001 2Z" fill="#0080FF"/>
</svg>
