<?xml version="1.0" encoding="iso-8859-1"?>
<!-- Generator: Adobe Illustrator 21.0.0, SVG Export Plug-In . SVG Version: 6.00 Build 0)  -->
<svg version="1.1" id="Capa_1" xmlns="http://www.w3.org/2000/svg" xmlns:xlink="http://www.w3.org/1999/xlink" x="0px" y="0px"
	 viewBox="0 0 512 512" style="enable-background:new 0 0 512 512;" xml:space="preserve">
<g>
	<path style="fill:#E64C3C;" d="M467.862,123.586h35.31c4.875,0,8.828,3.952,8.828,8.828v247.172c0,4.875-3.952,8.828-8.828,8.828
		H8.828c-4.875,0-8.828-3.952-8.828-8.828V132.414c0-4.875,3.952-8.828,8.828-8.828H467.862z"/>
	<path style="fill:#E57E25;" d="M414.897,105.931h44.138c4.875,0,8.828,3.952,8.828,8.828v282.483c0,4.875-3.952,8.828-8.828,8.828
		H52.966c-4.875,0-8.828-3.952-8.828-8.828V114.759c0-4.875,3.952-8.828,8.828-8.828H414.897z"/>
	<path style="fill:#F0C419;" d="M370.759,79.448h35.31c4.875,0,8.828,3.952,8.828,8.828v335.448c0,4.875-3.952,8.828-8.828,8.828
		H105.931c-4.875,0-8.828-3.952-8.828-8.828V88.276c0-4.875,3.952-8.828,8.828-8.828H370.759z"/>
	<path style="fill:#71C285;" d="M150.069,52.966h211.862c4.875,0,8.828,3.952,8.828,8.828v388.414c0,4.875-3.952,8.828-8.828,8.828
		H150.069c-4.875,0-8.828-3.952-8.828-8.828V61.793C141.241,56.918,145.194,52.966,150.069,52.966z"/>
	<g>
		<path style="fill:#4C8056;" d="M185.379,141.241h44.138c4.875,0,8.828-3.952,8.828-8.828c0-4.875-3.952-8.828-8.828-8.828h-44.138
			c-4.875,0-8.828,3.952-8.828,8.828C176.552,137.289,180.504,141.241,185.379,141.241z"/>
		<path style="fill:#4C8056;" d="M185.379,176.552h141.241c4.875,0,8.828-3.952,8.828-8.828s-3.952-8.828-8.828-8.828H185.379
			c-4.875,0-8.828,3.952-8.828,8.828S180.504,176.552,185.379,176.552z"/>
		<path style="fill:#4C8056;" d="M326.621,194.207H185.379c-4.875,0-8.828,3.952-8.828,8.828s3.952,8.828,8.828,8.828h141.241
			c4.875,0,8.828-3.952,8.828-8.828S331.496,194.207,326.621,194.207z"/>
		<path style="fill:#4C8056;" d="M326.621,229.517H185.379c-4.875,0-8.828,3.952-8.828,8.828c0,4.875,3.952,8.828,8.828,8.828
			h141.241c4.875,0,8.828-3.952,8.828-8.828C335.448,233.469,331.496,229.517,326.621,229.517z"/>
		<path style="fill:#4C8056;" d="M326.621,264.828H185.379c-4.875,0-8.828,3.952-8.828,8.828s3.952,8.828,8.828,8.828h141.241
			c4.875,0,8.828-3.952,8.828-8.828S331.496,264.828,326.621,264.828z"/>
		<path style="fill:#4C8056;" d="M326.621,300.138H185.379c-4.875,0-8.828,3.952-8.828,8.828s3.952,8.828,8.828,8.828h141.241
			c4.875,0,8.828-3.952,8.828-8.828S331.496,300.138,326.621,300.138z"/>
		<path style="fill:#4C8056;" d="M326.621,335.448H185.379c-4.875,0-8.828,3.952-8.828,8.828s3.952,8.828,8.828,8.828h141.241
			c4.875,0,8.828-3.952,8.828-8.828S331.496,335.448,326.621,335.448z"/>
		<path style="fill:#4C8056;" d="M273.655,370.759h-88.276c-4.875,0-8.828,3.952-8.828,8.828s3.952,8.828,8.828,8.828h88.276
			c4.875,0,8.828-3.952,8.828-8.828S278.531,370.759,273.655,370.759z"/>
	</g>
</g>
<g>
</g>
<g>
</g>
<g>
</g>
<g>
</g>
<g>
</g>
<g>
</g>
<g>
</g>
<g>
</g>
<g>
</g>
<g>
</g>
<g>
</g>
<g>
</g>
<g>
</g>
<g>
</g>
<g>
</g>
</svg>
